<svg width="93" height="123" viewBox="0 0 93 123" fill="none" xmlns="http://www.w3.org/2000/svg">
<path d="M71.1441 1.211C70.4031 0.682999 69.5161 0.400024 68.6071 0.400024C67.6971 0.400024 66.8101 0.682999 66.0691 1.211C60.5541 5.062 55.7811 9.87899 51.9821 15.43C51.6071 15.901 51.3331 16.445 51.1771 17.027C51.0221 17.609 50.9891 18.217 51.0791 18.813C51.1701 19.409 51.3831 19.979 51.7041 20.489C52.0261 20.998 52.4492 21.436 52.9472 21.775C53.4462 22.113 54.0091 22.345 54.6011 22.455C55.1941 22.566 55.8021 22.553 56.3891 22.417C56.9771 22.282 57.5291 22.026 58.0131 21.667C58.4971 21.308 58.9011 20.853 59.2011 20.33C61.8281 16.522 64.9971 13.117 68.6071 10.223C82.1691 21.205 86.4571 35.992 82.4761 44.086C81.1421 46.639 79.1561 48.793 76.7201 50.329C74.2841 51.866 71.4851 52.731 68.6071 52.836C65.7291 52.731 62.9291 51.866 60.4941 50.329C58.0581 48.793 56.0721 46.639 54.7381 44.086C53.5351 41.475 53.0371 38.593 53.2941 35.73C53.3401 35.155 53.2731 34.577 53.0951 34.029C52.9181 33.48 52.6341 32.972 52.2601 32.534C51.8871 32.095 51.4301 31.734 50.9171 31.472C50.4041 31.209 49.8441 31.051 49.2691 31.005C48.6951 30.959 48.1171 31.026 47.5681 31.204C47.0201 31.381 46.5121 31.665 46.0731 32.039C45.6351 32.412 45.2741 32.869 45.0111 33.382C44.7491 33.895 44.5901 34.455 44.5441 35.03C44.1481 39.453 44.9171 43.903 46.7761 47.936C48.8451 51.981 51.9721 55.391 55.8231 57.802C59.6751 60.213 64.1081 61.536 68.6511 61.63C73.1941 61.536 77.6262 60.213 81.4782 57.802C85.3292 55.391 88.4561 51.981 90.5261 47.936C97.0441 33.98 88.9511 13.855 71.1441 1.211Z" fill="url(#paint0_linear_9_41)"/>
<path d="M57.6691 87.879C56.5091 87.879 55.3961 88.34 54.5761 89.161C53.7551 89.981 53.2941 91.094 53.2941 92.254C53.5441 95.696 52.8641 99.141 51.3251 102.229C49.3201 105.765 46.4321 108.721 42.9431 110.807C39.4541 112.893 35.4831 114.037 31.4191 114.129C27.3801 114.048 23.4291 112.926 19.9501 110.872C16.4711 108.818 13.5801 105.902 11.5571 102.404C6.00011 91.773 12.1251 72.26 31.4191 58.217C38.3761 63.154 44.1941 69.524 48.4821 76.898C48.7691 77.398 49.1521 77.836 49.6091 78.188C50.0651 78.54 50.5871 78.798 51.1431 78.949C51.7001 79.099 52.2811 79.138 52.8521 79.064C53.4241 78.99 53.9761 78.804 54.4751 78.517C54.9751 78.229 55.4141 77.847 55.7661 77.39C56.1171 76.933 56.3761 76.412 56.5261 75.855C56.6771 75.299 56.7161 74.718 56.6421 74.146C56.5681 73.574 56.3821 73.023 56.0941 72.523C50.6311 63.092 43.0161 55.087 33.8691 49.16C33.1501 48.681 32.3051 48.425 31.4411 48.425C30.5771 48.425 29.7321 48.681 29.0131 49.16C6.08811 64.473 -4.9809 89.585 3.8131 106.385C6.5651 111.313 10.5651 115.43 15.4101 118.325C20.2551 121.22 25.7761 122.791 31.4191 122.879C37.0541 122.799 42.5691 121.242 47.4141 118.363C52.2581 115.484 56.2621 111.384 59.0251 106.473C61.2881 102.09 62.3311 97.179 62.0441 92.254C62.0441 91.094 61.5831 89.981 60.7631 89.161C59.9421 88.34 58.8301 87.879 57.6691 87.879Z" fill="url(#paint1_linear_9_41)"/>
<path d="M18.7751 83.505C17.6271 83.382 16.4781 83.718 15.5761 84.439C14.6751 85.16 14.0951 86.208 13.9631 87.355C13.6081 90.381 13.9261 93.448 14.8951 96.337C15.8631 99.226 17.4571 101.866 19.5631 104.067C22.5901 107.115 26.5161 109.109 30.7631 109.755H31.4191C32.5791 109.842 33.7271 109.464 34.6091 108.706C35.4911 107.947 36.0351 106.868 36.1221 105.708C36.2091 104.548 35.8321 103.4 35.0731 102.518C34.3141 101.636 33.2361 101.092 32.0751 101.005C29.7041 100.649 27.5021 99.563 25.7751 97.899C24.6111 96.62 23.7331 95.108 23.1971 93.464C22.6621 91.819 22.4821 90.08 22.6691 88.361C22.7361 87.786 22.6881 87.203 22.5281 86.647C22.3681 86.091 22.0991 85.571 21.7371 85.12C21.3741 84.668 20.9261 84.293 20.4181 84.015C19.9091 83.738 19.3511 83.565 18.7751 83.505Z" fill="url(#paint2_linear_9_41)"/>
<defs>
<linearGradient id="paint0_linear_9_41" x1="46.783" y1="0.400024" x2="46.783" y2="122.879" gradientUnits="userSpaceOnUse">
<stop stop-color="#7CB1F8"/>
<stop offset="1" stop-color="#3495E3"/>
</linearGradient>
<linearGradient id="paint1_linear_9_41" x1="46.782" y1="0.400024" x2="46.782" y2="122.879" gradientUnits="userSpaceOnUse">
<stop stop-color="#7CB1F8"/>
<stop offset="1" stop-color="#3495E3"/>
</linearGradient>
<linearGradient id="paint2_linear_9_41" x1="24.9781" y1="83.48" x2="24.9781" y2="109.767" gradientUnits="userSpaceOnUse">
<stop stop-color="#7CB1F8"/>
<stop offset="1" stop-color="#3495E3"/>
</linearGradient>
</defs>
</svg>
