<svg width="48" height="48" viewBox="0 0 48 48" fill="none" xmlns="http://www.w3.org/2000/svg">
<path d="M7.99261 20.6289C7.98999 18.8499 6.66824 17.278 4.91348 16.9856V16.9856C3.2333 16.7055 1.55956 17.6702 0.987489 19.2746C0.449488 20.7835 0 22.3281 0 24C0 37.2548 10.7452 48 24 48C37.2548 48 48 37.2548 48 24C48 10.7452 37.2548 0 24 0C22.2516 0 20.3358 0.393466 18.5336 1.05699C16.6794 1.73963 15.9083 3.82694 16.4893 5.71537V5.71537C17.0802 7.63562 18.9112 8.78459 20.8945 8.46412C22.3647 8.22658 23.796 8 24 8C32.8366 8 40 15.1634 40 24C40 32.8366 32.8366 40 24 40C15.1634 40 8 32.8366 8 24C8 23.8328 7.99494 22.2118 7.99261 20.6289Z" fill="url(#paint0_linear_6_7)"/>
<defs>
<linearGradient id="paint0_linear_6_7" x1="-37" y1="50.5" x2="14.5" y2="-19" gradientUnits="userSpaceOnUse">
<stop offset="0.505208" stop-color="#00A3FF"/>
<stop offset="0.994792" stop-color="#00FFF0"/>
</linearGradient>
</defs>
</svg>
